<?xml version="1.0" encoding="iso-8859-1"?>
<!-- Uploaded to: SVG Repo, www.svgrepo.com, Generator: SVG Repo Mixer Tools -->
<svg fill="#000000" height="800px" width="800px" version="1.1" id="Layer_1" xmlns="http://www.w3.org/2000/svg" xmlns:xlink="http://www.w3.org/1999/xlink" 
	 viewBox="0 0 512 512" xml:space="preserve">
<g>
	<g>
		<g>
			<path d="M403.426,147.525h-2.377C385.744,66.444,334.842,0,255.997,0S126.251,66.444,110.946,147.525h-2.38
				c-19.178,0-34.446,16.053-33.486,35.207l14.865,297.41C90.835,497.986,105.564,512,123.431,512H388.56
				c17.867,0,32.596-14.014,33.486-31.858l14.874-297.41C437.88,163.579,422.604,147.525,403.426,147.525z M255.997,17.356
				c67.436,0,112.706,57.818,127.369,130.169h-18.099c-3.914-16.411-9.639-33.18-17.629-48.966
				c-21.231-41.96-52.308-63.848-91.641-63.848s-70.41,21.887-91.642,63.848c-7.991,15.788-13.722,32.579-17.624,48.965h-18.104
				C143.292,75.174,188.561,17.356,255.997,17.356z M347.382,147.525H164.617c3.569-13.879,8.562-27.964,15.225-41.129
				c18.445-36.454,43.826-54.329,76.156-54.329s57.711,17.875,76.155,54.328C338.815,119.559,343.804,133.629,347.382,147.525z
				 M404.712,479.276c-0.429,8.608-7.535,15.368-16.152,15.368H123.431c-8.617,0-15.723-6.76-16.152-15.367L92.414,181.865
				c-0.463-9.241,6.901-16.983,16.152-16.983h52.171h190.535h52.154c9.254,0,16.624,7.745,16.161,16.982L404.712,479.276z"/>
			<path d="M368.811,225.627H143.184c-4.793,0-8.678,3.885-8.678,8.678c0,4.793,3.885,8.678,8.678,8.678h20.751
				c-2.182,5.164-3.395,11.118-3.395,17.356c0,18.603,10.742,34.712,26.034,34.712c15.292,0,26.034-16.109,26.034-34.712
				c0-6.238-1.213-12.192-3.395-17.356h107.531v35.582c-19.804,4.021-34.712,21.53-34.712,42.52c0,23.962,19.427,43.39,43.39,43.39
				c23.962,0,43.39-19.427,43.39-43.39c0-20.99-14.908-38.499-34.712-42.52v-35.582h34.712c4.793,0,8.678-3.885,8.678-8.678
				C377.489,229.512,373.604,225.627,368.811,225.627z M351.455,321.085c0,14.377-11.657,26.034-26.034,26.034
				c-14.377,0-26.034-11.657-26.034-26.034c0-14.377,11.657-26.034,26.034-26.034C339.798,295.051,351.455,306.708,351.455,321.085z
				 M195.252,260.339c0,10.15-4.805,17.356-8.678,17.356s-8.678-7.206-8.678-17.356s4.805-17.356,8.678-17.356
				S195.252,250.189,195.252,260.339z"/>
			<path d="M308.065,321.085c0,4.793,3.885,8.678,8.678,8.678h17.356c4.793,0,8.678-3.885,8.678-8.678
				c0-4.793-3.885-8.678-8.678-8.678h-17.356C311.95,312.407,308.065,316.292,308.065,321.085z"/>
		</g>
	</g>
</g>
</svg>